REM DIRINDEX 1\2\3,1\2\4,1\2\5,1\2\6
REM DIRNAME cjc157,folder01,folder02,folder03,folder04,folder05
TITLE ""
FILE "049 049.mp3" MP3
  TRACK 01 AUDIO
    TITLE "0:"
    INDEX 01 00:00:00
  TRACK 02 AUDIO
    TITLE "3:cjc157_1862"
    INDEX 01 00:00:09
  TRACK 03 AUDIO
    TITLE "0:"
    INDEX 01 00:01:52
  TRACK 04 AUDIO
    TITLE "4:cjc157_1863"
    INDEX 01 00:02:22
  TRACK 05 AUDIO
    TITLE "0:"
    INDEX 01 00:03:45
  TRACK 06 AUDIO
    TITLE "5:cjc157_1864"
    INDEX 01 00:04:13
  TRACK 07 AUDIO
    TITLE "0:"
    INDEX 01 00:07:11
  TRACK 08 AUDIO
    TITLE "5:cjc157_1865"
    INDEX 01 00:07:52
  TRACK 09 AUDIO
    TITLE "0:"
    INDEX 01 00:10:61
  TRACK 10 AUDIO
    TITLE "3:cjc157_1866"
    INDEX 01 00:11:31
  TRACK 11 AUDIO
    TITLE "0:"
    INDEX 01 00:13:00
  TRACK 12 AUDIO
    TITLE "4:cjc157_1867"
    INDEX 01 00:13:45
  TRACK 13 AUDIO
    TITLE "0:"
    INDEX 01 00:14:58
  TRACK 14 AUDIO
    TITLE "5:cjc157_1868"
    INDEX 01 00:15:30
  TRACK 15 AUDIO
    TITLE "0:"
    INDEX 01 00:17:39
  TRACK 16 AUDIO
    TITLE "5:cjc157_1869"
    INDEX 01 00:18:07
  TRACK 17 AUDIO
    TITLE "0:"
    INDEX 01 00:20:28
  TRACK 18 AUDIO
    TITLE "3:cjc157_1870"
    INDEX 01 00:20:69
  TRACK 19 AUDIO
    TITLE "0:"
    INDEX 01 00:22:42
  TRACK 20 AUDIO
    TITLE "4:cjc157_1871"
    INDEX 01 00:23:14
  TRACK 21 AUDIO
    TITLE "0:"
    INDEX 01 00:24:53
  TRACK 22 AUDIO
    TITLE "5:cjc157_1872"
    INDEX 01 00:25:23
  TRACK 23 AUDIO
    TITLE "0:"
    INDEX 01 00:28:00
  TRACK 24 AUDIO
    TITLE "5:cjc157_1873"
    INDEX 01 00:28:47
  TRACK 25 AUDIO
    TITLE "0:"
    INDEX 01 00:31:26
  TRACK 26 AUDIO
    TITLE "5:cjc157_1874"
    INDEX 01 00:31:67
  TRACK 27 AUDIO
    TITLE "0:"
    INDEX 01 00:33:34
  TRACK 28 AUDIO
    TITLE "3:cjc157_1875"
    INDEX 01 00:34:02
  TRACK 29 AUDIO
    TITLE "0:"
    INDEX 01 00:35:23
  TRACK 30 AUDIO
    TITLE "4:cjc157_1876"
    INDEX 01 00:35:70
  TRACK 31 AUDIO
    TITLE "0:"
    INDEX 01 00:37:18
  TRACK 32 AUDIO
    TITLE "5:cjc157_1877"
    INDEX 01 00:37:57
  TRACK 33 AUDIO
    TITLE "0:"
    INDEX 01 00:41:04
  TRACK 34 AUDIO
    TITLE "5:cjc157_1878"
    INDEX 01 00:41:47
  TRACK 35 AUDIO
    TITLE "0:"
    INDEX 01 00:45:10
  TRACK 36 AUDIO
    TITLE "3:cjc157_1879"
    INDEX 01 00:45:53
  TRACK 37 AUDIO
    TITLE "0:"
    INDEX 01 00:47:21
  TRACK 38 AUDIO
    TITLE "4:cjc157_1880"
    INDEX 01 00:47:68
  TRACK 39 AUDIO
    TITLE "0:"
    INDEX 01 00:49:14
  TRACK 40 AUDIO
    TITLE "5:cjc157_1881"
    INDEX 01 00:49:57
  TRACK 41 AUDIO
    TITLE "0:"
    INDEX 01 00:52:67
  TRACK 42 AUDIO
    TITLE "5:cjc157_1882"
    INDEX 01 00:53:35
  TRACK 43 AUDIO
    TITLE "0:"
    INDEX 01 00:55:50
  TRACK 44 AUDIO
    TITLE "3:cjc157_1883"
    INDEX 01 00:56:18
  TRACK 45 AUDIO
    TITLE "0:"
    INDEX 01 00:58:03
  TRACK 46 AUDIO
    TITLE "4:cjc157_1884"
    INDEX 01 00:58:50
  TRACK 47 AUDIO
    TITLE "0:"
    INDEX 01 01:00:04
  TRACK 48 AUDIO
    TITLE "5:cjc157_1885"
    INDEX 01 01:00:51
  TRACK 49 AUDIO
    TITLE "0:"
    INDEX 01 01:03:00
  TRACK 50 AUDIO
    TITLE "3:cjc157_1886"
    INDEX 01 01:03:45
  TRACK 51 AUDIO
    TITLE "0:"
    INDEX 01 01:05:13
  TRACK 52 AUDIO
    TITLE "4:cjc157_1887"
    INDEX 01 01:05:58
  TRACK 53 AUDIO
    TITLE "0:"
    INDEX 01 01:07:02
  TRACK 54 AUDIO
    TITLE "5:cjc157_1888"
    INDEX 01 01:07:47
  TRACK 55 AUDIO
    TITLE "0:"
    INDEX 01 01:11:39
  TRACK 56 AUDIO
    TITLE "5:cjc157_1889"
    INDEX 01 01:12:07
  TRACK 57 AUDIO
    TITLE "0:"
    INDEX 01 01:16:14
  TRACK 58 AUDIO
    TITLE "3:cjc157_1890"
    INDEX 01 01:16:60
  TRACK 59 AUDIO
    TITLE "0:"
    INDEX 01 01:18:02
  TRACK 60 AUDIO
    TITLE "4:cjc157_1891"
    INDEX 01 01:18:49
  TRACK 61 AUDIO
    TITLE "0:"
    INDEX 01 01:19:58
  TRACK 62 AUDIO
    TITLE "5:cjc157_1892"
    INDEX 01 01:20:28
  TRACK 63 AUDIO
    TITLE "0:"
    INDEX 01 01:23:11
  TRACK 64 AUDIO
    TITLE "3:cjc157_1893"
    INDEX 01 01:23:58
  TRACK 65 AUDIO
    TITLE "0:"
    INDEX 01 01:25:21
  TRACK 66 AUDIO
    TITLE "4:cjc157_1894"
    INDEX 01 01:25:68
  TRACK 67 AUDIO
    TITLE "0:"
    INDEX 01 01:27:08
  TRACK 68 AUDIO
    TITLE "5:cjc157_1895"
    INDEX 01 01:27:50
  TRACK 69 AUDIO
    TITLE "0:"
    INDEX 01 01:30:11
  TRACK 70 AUDIO
    TITLE "3:cjc157_1896"
    INDEX 01 01:30:56
  TRACK 71 AUDIO
    TITLE "0:"
    INDEX 01 01:31:73
  TRACK 72 AUDIO
    TITLE "4:cjc157_1897"
    INDEX 01 01:32:39
  TRACK 73 AUDIO
    TITLE "0:"
    INDEX 01 01:33:48
  TRACK 74 AUDIO
    TITLE "5:cjc157_1898"
    INDEX 01 01:34:18
  TRACK 75 AUDIO
    TITLE "0:"
    INDEX 01 01:37:38
  TRACK 76 AUDIO
    TITLE "5:cjc157_1899"
    INDEX 01 01:38:08
  TRACK 77 AUDIO
    TITLE "0:"
    INDEX 01 01:41:18
